HIERARCHY
ROOT Hips
{
	OFFSET 0.203676 102.566879 -1.929824
	CHANNELS 6 Xposition Yposition Zposition Xrotation Yrotation Zrotation
	JOINT Chest
	{
		OFFSET -1.730901 13.517143 0.667042
		CHANNELS 3 Xrotation Yrotation Zrotation
		JOINT Chest2
		{
			OFFSET -3.784015 20.967827 2.257866
			CHANNELS 3 Xrotation Yrotation Zrotation
			JOINT Chest3
			{
				OFFSET 1.150332 14.882309 0.115468
				CHANNELS 3 Xrotation Yrotation Zrotation
				JOINT Neck
				{
					OFFSET 2.164830 17.103439 1.183911
					CHANNELS 3 Xrotation Yrotation Zrotation
					JOINT Head
					{
						OFFSET 0.029927 10.199249 2.408782
						CHANNELS 3 Xrotation Yrotation Zrotation
						End Site
						{
							OFFSET 0.057644 10.214462 2.342902
						}
					}
				}
				JOINT LeftCollar
				{
					OFFSET 5.034868 12.434708 4.672535
					CHANNELS 3 Xrotation Yrotation Zrotation
					JOINT LeftUpArm
					{
						OFFSET 15.420557 -7.025513 -4.620374
						CHANNELS 3 Xrotation Yrotation Zrotation
						JOINT LeftLowArm
						{
							OFFSET 18.933456 -27.949677 -0.260622
							CHANNELS 3 Xrotation Yrotation Zrotation
							JOINT LeftHand
							{
								OFFSET 20.477844 -20.060005 8.899484
								CHANNELS 3 Xrotation Yrotation Zrotation
								End Site
								{
									OFFSET 4.475563 -4.384224 1.945034
								}
							}
						}
					}
				}
				JOINT RightCollar
				{
					OFFSET -3.075303 13.594864 2.744261
					CHANNELS 3 Xrotation Yrotation Zrotation
					JOINT RightUpArm
					{
						OFFSET -11.434578 8.588806 -10.197014
						CHANNELS 3 Xrotation Yrotation Zrotation
						JOINT RightLowArm
						{
							OFFSET -18.943583 26.625168 8.483794
							CHANNELS 3 Xrotation Yrotation Zrotation
							JOINT RightHand
							{
								OFFSET 11.196503 19.261063 20.114796
								CHANNELS 3 Xrotation Yrotation Zrotation
								End Site
								{
									OFFSET 2.447117 4.209686 4.396290
								}
							}
						}
					}
				}
			}
		}
	}
	JOINT LeftUpLeg
	{
		OFFSET 9.047821 0.951057 4.201376
		CHANNELS 3 Xrotation Yrotation Zrotation
		JOINT LeftLowLeg
		{
			OFFSET -0.564905 -47.236828 3.514614
			CHANNELS 3 Xrotation Yrotation Zrotation
			JOINT LeftFoot
			{
				OFFSET -0.089234 -40.650429 -18.657497
				CHANNELS 3 Xrotation Yrotation Zrotation
				JOINT LeftToe
				{
					OFFSET -5.631078 -17.077677 15.368916
					CHANNELS 3 Xrotation Yrotation Zrotation
					End Site
					{
						OFFSET -5.733057 -2.949050 22.759483
					}
				}
			}
		}
	}
	JOINT RightUpLeg
	{
		OFFSET -9.047800 -0.951256 -4.201388
		CHANNELS 3 Xrotation Yrotation Zrotation
		JOINT RightLowLeg
		{
			OFFSET -20.025650 -42.328491 7.161368
			CHANNELS 3 Xrotation Yrotation Zrotation
			JOINT RightFoot
			{
				OFFSET 27.464659 -21.741676 -27.813187
				CHANNELS 3 Xrotation Yrotation Zrotation
				JOINT RightToe
				{
					OFFSET 7.175303 -22.362431 2.827341
					CHANNELS 3 Xrotation Yrotation Zrotation
					End Site
					{
						OFFSET -7.591990 -20.685688 8.603494
					}
				}
			}
		}
	}
}
MOTION
Frames: 14
Frame Time: 0.033333
-2.626349 105.281471 -1.111724 3.914506 22.212998 -7.749441 -4.272496 -1.242558 0.334318 1.250028 -6.899662 12.072625 2.046445 0.714547 1.748037 -8.363718 4.169301 -3.466681 0.000000 -0.000001 0.000000 6.499420 -2.863484 -4.093549 -8.811050 -19.081850 -28.589055 5.042519 -16.783137 -12.685593 -0.000001 -0.000001 0.000003 -4.398243 -6.082164 52.032050 11.248031 -16.796383 76.682780 19.044765 -34.772216 44.706276 -0.000001 0.000004 0.000001 -1.897367 0.685119 9.394981 -9.985966 4.336430 7.056523 1.135750 -11.971959 -5.013038 0.000000 -0.000001 0.000001 11.125758 2.494424 31.146452 -33.682730 17.118450 -60.591715 -17.637654 26.417592 4.296330 0.000002 0.000001 -0.000003 
-2.623904 105.282066 -1.112139 3.791602 21.991235 -7.780118 -3.531076 -1.188241 0.616229 0.254597 -6.922277 11.584417 2.511886 0.841322 2.067611 -8.219742 4.158631 -3.407913 0.000000 -0.000002 -0.000001 6.515119 -2.726136 -4.187303 -8.618941 -18.972416 -28.309531 4.810134 -16.896326 -13.024273 -0.000002 0.000003 0.000001 -4.492979 -6.369351 52.135305 11.221586 -16.645277 76.440602 19.040802 -34.870042 45.018969 -0.000004 -0.000001 -0.000000 -1.690867 0.737332 9.550894 -9.893499 4.363810 6.989232 1.087057 -11.834641 -4.915889 0.000000 -0.000001 0.000001 11.053391 2.477769 31.175241 -33.335472 17.041894 -60.603087 -17.544473 26.569897 4.343337 -0.000003 0.000000 -0.000000 
-2.620774 105.282631 -1.112965 3.995758 22.111904 -7.741743 -3.079032 -1.136646 0.762998 -1.234243 -7.059955 11.020577 3.593665 0.634815 2.370735 -8.245117 4.213927 -3.400452 0.000000 0.000001 0.000000 6.422309 -3.259803 -3.930770 -8.328424 -18.568332 -28.357494 4.264241 -16.724734 -13.133682 0.000003 -0.000002 -0.000000 -4.490203 -6.027779 52.157397 10.994853 -17.462483 76.550554 19.226535 -34.415342 45.326146 -0.000003 0.000005 0.000003 -1.652451 0.701466 9.511260 -9.965471 4.239518 6.952585 0.977318 -11.842469 -4.927993 0.000000 -0.000001 0.000001 11.013098 2.472208 31.111566 -33.487017 17.261355 -60.556375 -17.457574 26.352497 4.310927 -0.000000 0.000000 -0.000001 
-2.617081 105.284866 -1.116270 4.492206 22.040935 -7.735654 -3.833415 -1.211465 0.559770 -1.504987 -7.020748 10.851793 3.953185 0.796326 2.444815 -8.215368 4.060404 -3.190060 -0.000001 -0.000001 0.000000 6.447596 -3.639667 -3.759224 -8.336758 -18.573666 -28.369959 4.274880 -16.605899 -13.107941 -0.000001 -0.000003 0.000003 -4.609646 -6.699842 52.013178 11.060947 -16.728627 76.389136 19.177452 -34.652493 45.676190 -0.000001 0.000002 0.000002 -2.436779 0.572593 9.119401 -9.523906 4.111752 7.124249 0.688712 -11.700767 -4.759347 -0.000000 -0.000001 0.000001 10.335156 2.384113 30.864812 -33.272338 17.243733 -60.552871 -17.528593 26.271056 4.313969 -0.000002 0.000001 0.000001 
-2.606151 105.286118 -1.122869 4.569784 21.914923 -7.723386 -4.126218 -1.246897 0.475945 0.012638 -6.919286 11.446065 2.853709 1.037821 2.104119 -8.699889 4.025103 -3.280211 -0.000001 -0.000001 -0.000001 6.530979 -3.608918 -3.841453 -8.872656 -18.971684 -28.379462 4.309041 -16.696327 -12.899165 0.000000 0.000001 0.000005 -4.471546 -6.411891 52.056820 11.215523 -15.954784 76.114856 18.982691 -34.827439 45.393208 -0.000003 0.000002 0.000004 -2.607599 0.612558 9.085188 -9.515359 4.249113 7.061331 1.134050 -11.707446 -4.796717 0.000000 -0.000001 0.000000 10.547398 2.356531 30.862305 -33.620903 17.204377 -60.694611 -17.411933 26.664792 4.286421 -0.000000 0.000001 0.000003 
-2.595677 105.289482 -1.129405 4.852426 21.646475 -7.679898 -4.997179 -1.312579 0.154121 1.719755 -6.695810 12.015062 1.699910 1.138627 1.793625 -8.561637 4.074351 -3.260470 -0.000001 -0.000001 0.000000 6.597728 -2.361598 -4.073144 -9.189599 -19.248562 -28.225012 4.744103 -16.475844 -13.367737 -0.000003 0.000002 0.000005 -4.310238 -5.972217 52.020148 11.232025 -15.957559 76.124227 18.865375 -34.930933 45.527210 -0.000001 0.000001 0.000001 -2.688653 0.608210 9.015600 -9.770886 4.201548 6.888671 0.864290 -11.680227 -4.790828 0.000001 -0.000002 0.000000 10.598641 2.338561 30.806008 -33.838403 17.414824 -60.799790 -17.240757 27.013729 4.385384 -0.000001 0.000003 -0.000003 
-2.582373 105.290016 -1.132548 4.421835 21.603468 -7.638337 -4.251347 -1.266754 0.495401 1.709996 -6.764129 12.058375 1.558782 1.029371 1.634012 -8.927449 4.142993 -3.465872 -0.000000 -0.000001 -0.000000 6.658218 -2.435436 -3.964316 -9.681670 -19.532411 -28.353365 5.201589 -16.113637 -13.227766 -0.000001 0.000003 0.000001 -4.234634 -5.749302 51.942830 11.225284 -15.764381 76.046616 19.187548 -34.715437 45.636408 -0.000004 0.000005 0.000000 -2.078392 0.750140 9.174781 -10.058087 4.126625 6.824857 1.063227 -11.665781 -4.838365 0.000001 -0.000001 0.000001 11.023114 2.346905 30.903826 -33.806616 17.398753 -60.783978 -17.348566 27.266578 4.364123 0.000002 -0.000001 -0.000002 
-2.570016 105.287369 -1.133994 4.528179 21.359726 -7.663739 -4.188027 -1.275361 0.549910 1.023820 -6.780085 11.723843 2.078395 1.177566 1.878049 -8.672727 4.106497 -3.435371 0.000000 0.000001 0.000000 6.626342 -2.217709 -3.797368 -9.545221 -19.519347 -28.419958 5.327060 -16.287204 -13.368001 -0.000001 0.000001 0.000001 -4.285149 -6.048454 51.893004 11.311940 -15.770690 75.952926 19.334563 -34.945065 45.870505 -0.000004 0.000002 0.000002 -2.149541 0.728767 9.148042 -9.912857 4.167161 6.945737 1.018534 -11.784260 -4.880135 -0.000001 0.000001 0.000002 11.182883 2.385956 30.950722 -34.209474 17.511249 -60.906491 -16.957987 27.363399 4.315222 -0.000001 0.000001 -0.000003 
-2.561574 105.291481 -1.133763 4.557381 21.083158 -7.640415 -4.043660 -1.253872 0.532958 0.646804 -6.810635 11.558256 2.239759 1.427840 2.049295 -8.848677 4.071892 -3.476754 0.000000 -0.000001 -0.000001 6.597399 -2.283354 -3.784444 -9.404885 -19.337874 -28.240240 5.267800 -16.169370 -13.740043 0.000000 0.000003 0.000010 -4.332910 -6.027015 51.898892 11.221152 -16.006000 75.883552 19.426492 -34.800674 45.917658 -0.000003 0.000003 0.000001 -2.315839 0.723768 9.084783 -9.619932 4.114368 6.984519 0.764570 -11.761581 -4.807525 0.000001 -0.000001 -0.000001 11.072016 2.339693 30.908266 -34.074591 17.463105 -61.012345 -17.161313 27.732880 4.392820 -0.000001 -0.000002 -0.000002 
-2.548388 105.291168 -1.135196 4.802505 21.246601 -7.600588 -4.334190 -1.271477 0.463543 0.782624 -6.824573 11.640567 2.296325 1.280176 1.996778 -8.938665 4.098724 -3.483037 -0.000000 -0.000001 -0.000000 6.564115 -2.323503 -3.855930 -9.670265 -19.575998 -28.222774 5.145953 -16.391371 -13.618169 0.000002 0.000003 0.000003 -4.264727 -5.857792 51.969673 11.283512 -15.789553 75.667226 19.418904 -35.020682 45.660375 -0.000001 0.000003 0.000001 -2.128310 0.798038 9.069106 -10.021928 4.154333 6.955146 0.802399 -11.959233 -4.952767 -0.000001 -0.000000 0.000002 11.019983 2.313960 30.785080 -34.278479 17.565529 -60.948189 -16.491446 27.211646 4.116936 0.000001 -0.000001 -0.000000 
-2.539196 105.294540 -1.136198 4.915238 21.305967 -7.581630 -4.462669 -1.268876 0.411858 1.053733 -6.847395 11.784980 2.045389 1.279055 1.879009 -8.668891 3.925911 -3.398277 0.000002 -0.000002 -0.000001 6.473624 -2.330764 -3.931755 -9.738176 -19.430640 -28.116383 4.930897 -16.210385 -13.872452 -0.000001 0.000000 0.000007 -4.360361 -5.649690 51.989368 11.041586 -16.095529 75.674172 19.229055 -34.920998 45.858300 -0.000002 0.000001 -0.000000 -1.942841 0.832787 9.135912 -10.469594 4.267388 6.788986 1.273845 -12.084152 -5.086090 -0.000000 0.000000 0.000001 10.914249 2.266311 30.718305 -34.291009 17.516693 -60.931646 -16.307992 27.446140 4.098861 -0.000003 -0.000001 -0.000000 
-2.528443 105.295021 -1.140931 4.827252 21.136164 -7.589733 -4.094648 -1.242343 0.603817 0.474238 -6.912334 11.591181 2.388793 1.432465 1.954131 -8.733341 3.878935 -3.334708 0.000001 -0.000002 -0.000000 6.445142 -2.634140 -3.851997 -9.841067 -19.414278 -28.146433 4.751755 -16.115889 -13.911511 0.000001 -0.000001 0.000005 -4.461547 -5.856829 51.993545 11.011992 -15.388838 75.344199 18.904738 -35.085288 46.140223 -0.000004 0.000002 0.000003 -1.620754 0.871335 9.318320 -10.872617 4.357930 6.589602 1.174322 -12.149995 -5.085480 -0.000000 0.000001 0.000001 11.054969 2.292294 30.775791 -34.229288 17.528357 -60.931858 -16.297530 27.663280 4.178384 -0.000002 -0.000003 -0.000000 
-2.522759 105.296738 -1.143952 4.915789 20.965576 -7.532438 -3.842851 -1.215525 0.642125 -0.406545 -7.036500 11.311539 2.948776 1.408507 2.071054 -8.804397 3.897899 -3.348366 0.000000 -0.000003 -0.000000 6.438024 -3.017892 -3.838910 -9.783120 -19.293582 -28.089725 4.379665 -16.026463 -13.801261 -0.000001 -0.000001 0.000003 -4.494971 -5.750147 52.067420 10.922714 -15.524323 75.267428 18.797992 -34.940645 46.373580 -0.000001 0.000002 -0.000000 -1.676573 0.809203 9.280893 -10.669362 4.284302 6.493714 0.871642 -11.955089 -4.952907 0.000001 -0.000000 0.000002 11.125517 2.316979 30.758405 -34.401675 17.692159 -60.953168 -16.245649 27.586034 4.197406 -0.000003 -0.000003 -0.000000 
-2.518652 105.298248 -1.143617 5.104293 21.122869 -7.620036 -4.380712 -1.255637 0.542889 0.554071 -6.919951 11.654030 2.357502 1.380616 1.941661 -8.838042 3.915971 -3.372049 -0.000000 -0.000001 -0.000001 6.340554 -2.732725 -3.893658 -10.079549 -19.457681 -28.252336 4.589972 -15.920811 -13.852323 -0.000002 0.000003 0.000001 -4.495173 -5.592593 52.034891 10.891263 -15.641188 75.273534 18.649376 -35.071088 46.323982 -0.000003 0.000002 0.000003 -1.818322 0.775735 9.243811 -10.795771 4.354512 6.640906 0.915615 -12.274352 -5.153197 0.000000 -0.000001 -0.000000 10.895074 2.313301 30.819036 -34.472340 17.739106 -61.023786 -16.398623 27.393483 4.191931 0.000002 -0.000002 -0.000000 
